<svg xmlns="http://www.w3.org/2000/svg" xmlns:svg="http://www.w3.org/2000/svg" id="svg2985" width="148" height="40" version="1.1"><metadata id="metadata2990"/><g id="layer1" transform="translate(0,8)"><rect id="rect2993" width="31.093" height="31.093" x="4.453" y="-3.547" fill="#fff" fill-opacity="1" stroke="#a1b1be" stroke-dasharray="none" stroke-dashoffset="0" stroke-linejoin="round" stroke-miterlimit="1" stroke-opacity="1" stroke-width="1"/><rect id="rect4337" width="31.093" height="31.093" x="40.453" y="-3.547" fill="#fff" fill-opacity="1" stroke="#a1b1be" stroke-dasharray="none" stroke-dashoffset="0" stroke-linejoin="round" stroke-miterlimit="4" stroke-opacity="1" stroke-width="1"/><g id="text3782" fill="#f08377" fill-opacity="1" stroke="none" font-family="Sans" font-size="40" font-style="normal" font-weight="normal" letter-spacing="0" transform="matrix(0.80735872,0.80735872,-0.80735872,0.80735872,37.221733,-6.3704057)" word-spacing="0" style="line-height:100%"><path id="path4344" fill="#f08377" fill-opacity="1" d="m 25.330518,-12.791652 0,10.2343753 10.195312,0 0,4.609375 -10.195312,0 0,10.2343747 -4.648438,0 0,-10.2343747 -10.195312,0 0,-4.609375 10.195312,0 0,-10.2343753 4.648438,0" font-family="Sans" font-stretch="normal" font-variant="normal" font-weight="bold" text-anchor="start" writing-mode="lr-tb" style="text-align:start;line-height:100%;-inkscape-font-specification:Sans Bold"/></g><rect id="rect4339" width="31.093" height="31.093" x="76.453" y="-3.547" fill="#f6f6f6" fill-opacity="1" stroke="#a1b1be" stroke-dasharray="none" stroke-dashoffset="0" stroke-linejoin="round" stroke-miterlimit="4" stroke-opacity="1" stroke-width="1"/><rect id="rect4341" width="31.093" height="31.093" x="112.453" y="-3.547" fill="#f6f6f6" fill-opacity="1" stroke="#a1b1be" stroke-dasharray="none" stroke-dashoffset="0" stroke-linejoin="round" stroke-miterlimit="4" stroke-opacity="1" stroke-width="1"/><g font-style="normal" style="line-height:100%" id="g4354" fill="#f08377" fill-opacity=".333" stroke="none" font-family="Sans" font-size="40" font-weight="normal" letter-spacing="0" transform="matrix(0.80735872,0.80735872,-0.80735872,0.80735872,111.60165,-6.0704057)" word-spacing="0"><path id="path4356" fill="#f08377" fill-opacity=".333" d="m 23.856625,-11.317759 0,10.2343755 10.195312,0 0,4.609375 -10.195312,0 0,10.2343745 -4.648438,0 0,-10.2343745 -10.1953122,0 0,-4.609375 10.1953122,0 0,-10.2343755 4.648438,0" font-family="Sans" font-stretch="normal" font-variant="normal" font-weight="bold" text-anchor="start" writing-mode="lr-tb" style="text-align:start;line-height:100%;-inkscape-font-specification:Sans Bold"/></g></g></svg>